<svg xmlns="http://www.w3.org/2000/svg" version="1.1" xmlns:xlink="http://www.w3.org/1999/xlink" xmlns:svgjs="http://svgjs.dev/svgjs" width="1000" height="487" viewBox="0 0 1000 487"><g transform="matrix(1,0,0,1,-0.6060606060606233,-0.22435776522868878)"><svg viewBox="0 0 396 193" data-background-color="#ffffff" preserveAspectRatio="xMidYMid meet" height="487" width="1000" xmlns="http://www.w3.org/2000/svg" xmlns:xlink="http://www.w3.org/1999/xlink"><g id="tight-bounds" transform="matrix(1,0,0,1,0.2400000000000091,0.08891385767789473)"><svg viewBox="0 0 395.52 192.8221722846442" height="192.8221722846442" width="395.52"><g><svg viewBox="0 0 395.52 192.8221722846442" height="192.8221722846442" width="395.52"><g><svg viewBox="0 0 395.52 192.8221722846442" height="192.8221722846442" width="395.52"><g><svg viewBox="0 0 395.52 192.8221722846442" height="192.8221722846442" width="395.52"><g><svg viewBox="0 0 395.52 192.8221722846442" height="192.8221722846442" width="395.52"><g transform="matrix(1,0,0,1,0,0)"><svg width="395.52" viewBox="5 -39.05 80.1 39.05" height="192.8221722846442" data-palette-color="#ffffff"><g class="undefined-text-0" data-fill-palette-color="primary" id="text-0"><path d="M7.6 0L7.6 0Q6.5 0 5.75-0.75 5-1.5 5-2.6L5-2.6 5-36.45Q5-37.6 5.75-38.33 6.5-39.05 7.6-39.05L7.6-39.05Q9.1-39.05 9.9-37.65L9.9-37.65 25.55-6.3 23.95-6.3 39.2-37.65Q40-39.05 41.5-39.05L41.5-39.05Q42.6-39.05 43.35-38.33 44.1-37.6 44.1-36.45L44.1-36.45 44.1-2.6Q44.1-1.5 43.33-0.75 42.55 0 41.5 0L41.5 0Q40.4 0 39.65-0.75 38.9-1.5 38.9-2.6L38.9-2.6 38.9-29.25 39.9-29.5 26.8-2.8Q25.95-1.5 24.55-1.5L24.55-1.5Q22.9-1.5 22.15-3.05L22.15-3.05 9.2-29 10.2-29.25 10.2-2.6Q10.2-1.5 9.45-0.75 8.7 0 7.6 0ZM65.75 0L56.7 0Q55.6 0 54.85-0.75 54.1-1.5 54.1-2.6L54.1-2.6 54.1-36.45Q54.1-37.6 54.85-38.33 55.6-39.05 56.7-39.05L56.7-39.05 65.75-39.05Q70.05-39.05 73.57-37.63 77.1-36.2 79.7-33.58 82.3-30.95 83.7-27.4 85.1-23.85 85.1-19.55L85.1-19.55Q85.1-15.25 83.7-11.68 82.3-8.1 79.7-5.48 77.1-2.85 73.57-1.43 70.05 0 65.75 0L65.75 0ZM59.3-34.45L59.3-4.6 65.75-4.6Q69.95-4.6 73.17-6.53 76.4-8.45 78.25-11.83 80.1-15.2 80.1-19.55L80.1-19.55Q80.1-23.95 78.25-27.3 76.4-30.65 73.17-32.55 69.95-34.45 65.75-34.45L65.75-34.45 59.3-34.45Z" fill="#ffffff" data-fill-palette-color="primary"></path></g></svg></g></svg></g></svg></g></svg></g></svg></g><defs></defs></svg><rect width="395.52" height="192.8221722846442" fill="none" stroke="none" visibility="hidden"></rect></g></svg></g></svg>